<svg width="24" height="24" viewBox="0 0 24 24" fill="none" xmlns="http://www.w3.org/2000/svg">
<path d="M11.9 20.9365H10.85C10.7212 20.936 10.594 20.9083 10.4767 20.855C10.3595 20.8018 10.2548 20.7242 10.1698 20.6275C10.0847 20.5308 10.0211 20.4172 9.98323 20.2941C9.94535 20.171 9.93403 20.0413 9.95003 19.9135L10.643 14.3655H7.30003L6.78703 15.2655C6.68404 15.4445 6.54078 15.597 6.36859 15.7111C6.19641 15.8251 6.00003 15.8975 5.79503 15.9225L5.10003 16.0005C4.95141 16.0195 4.80041 16.001 4.66071 15.9469C4.52101 15.8928 4.39703 15.8046 4.30003 15.6905C4.20248 15.5767 4.13455 15.4405 4.10228 15.2942C4.07001 15.1478 4.07438 14.9957 4.11503 14.8515L4.88903 12.0825C4.90602 12.026 4.90602 11.9659 4.88903 11.9095L4.11403 9.14545C4.0744 9.0015 4.07081 8.85 4.10356 8.70433C4.13631 8.55866 4.2044 8.42328 4.30183 8.31014C4.39926 8.197 4.52304 8.10957 4.66224 8.05556C4.80144 8.00156 4.95179 7.98263 5.10003 8.00045L5.79503 8.08345C5.99994 8.10832 6.19626 8.18054 6.36844 8.2944C6.54061 8.40826 6.68392 8.56063 6.78703 8.73945L7.30003 9.63945H10.64L9.94603 4.08845C9.92988 3.96058 9.94108 3.83073 9.97889 3.70751C10.0167 3.58429 10.0802 3.47051 10.1653 3.3737C10.2504 3.27689 10.3551 3.19926 10.4725 3.14594C10.5898 3.09263 10.7171 3.06485 10.846 3.06445H11.9C12.1685 3.06588 12.4302 3.1485 12.6508 3.30146C12.8714 3.45442 13.0406 3.67056 13.136 3.92145L15.28 9.63545H16.326C16.9168 9.63552 17.506 9.69719 18.084 9.81945C18.3703 9.86635 18.6442 9.97015 18.8897 10.1247C19.1351 10.2793 19.3471 10.4815 19.513 10.7195C19.6862 10.9631 19.8078 11.2396 19.8706 11.5319C19.9334 11.8241 19.9359 12.1262 19.878 12.4195C19.778 12.8782 19.5394 13.295 19.1945 13.6136C18.8496 13.9321 18.4152 14.137 17.95 14.2005L17.79 14.2245C17.2208 14.3151 16.6454 14.3609 16.069 14.3615H15.282L13.138 20.0755C13.0431 20.3274 12.8739 20.5446 12.6528 20.6984C12.4318 20.8521 12.1693 20.9351 11.9 20.9365ZM10.949 19.9365H11.9C11.9654 19.9364 12.0292 19.9164 12.0828 19.879C12.1364 19.8417 12.1774 19.7888 12.2 19.7275L14.414 13.8225C14.4651 13.6884 14.5557 13.573 14.6737 13.4914C14.7916 13.4099 14.9316 13.3659 15.075 13.3655H16.066C16.5908 13.365 17.1148 13.3232 17.633 13.2405L17.793 13.2155C18.0539 13.1826 18.2986 13.0715 18.495 12.8967C18.6914 12.7219 18.8302 12.4917 18.893 12.2365C18.9241 12.0748 18.9224 11.9086 18.888 11.7477C18.8537 11.5867 18.7874 11.4343 18.693 11.2995C18.6012 11.1672 18.4836 11.0547 18.3474 10.9688C18.2111 10.8829 18.059 10.8253 17.9 10.7995C17.3815 10.6897 16.853 10.6337 16.323 10.6325H15.073C14.9297 10.632 14.7898 10.5883 14.6719 10.5069C14.5539 10.4255 14.4633 10.3103 14.412 10.1765L12.2 4.27345C12.1774 4.21215 12.1364 4.15925 12.0828 4.12189C12.0292 4.08452 11.9654 4.06448 11.9 4.06445H10.949L11.671 9.84245C11.6844 9.94187 11.6762 10.043 11.647 10.139C11.6178 10.2349 11.5684 10.3235 11.502 10.3987C11.4356 10.4739 11.3539 10.534 11.2623 10.5748C11.1707 10.6157 11.0713 10.6363 10.971 10.6355H7.12703C7.00194 10.6359 6.87902 10.6029 6.77103 10.5397C6.66305 10.4766 6.57396 10.3857 6.51303 10.2765L5.91303 9.23145C5.88824 9.18773 5.85351 9.15046 5.81164 9.12267C5.76977 9.09487 5.72194 9.07732 5.67203 9.07145L5.11303 9.00045L5.85103 11.6405C5.91505 11.8731 5.91505 12.1188 5.85103 12.3515L5.11303 15.0005L5.67503 14.9335C5.72494 14.9276 5.77277 14.91 5.81464 14.8822C5.85651 14.8544 5.89124 14.8172 5.91603 14.7735L6.51603 13.7245C6.57731 13.6163 6.66631 13.5263 6.77388 13.4639C6.88144 13.4015 7.00368 13.3689 7.12803 13.3695H10.974C11.0744 13.3685 11.1738 13.3892 11.2655 13.4301C11.3572 13.471 11.4391 13.5312 11.5055 13.6065C11.5718 13.6818 11.6213 13.7705 11.6504 13.8666C11.6794 13.9627 11.6875 14.064 11.674 14.1635L10.949 19.9365Z" fill="black"/>
</svg>
