<svg width="80" height="80" viewBox="0 0 80 80" fill="none" xmlns="http://www.w3.org/2000/svg">
<path d="M69.5567 41.2528C71.0304 40.1358 71.3196 38.0356 70.2026 36.5619C69.0856 35.0882 66.9855 34.799 65.5118 35.916C64.0381 37.033 63.7489 39.1332 64.8659 40.6069C65.9828 42.0806 68.083 42.3697 69.5567 41.2528Z" fill="#423D9B"/>
<path d="M68.5171 39.8811C69.2332 39.3383 69.3737 38.3177 68.8309 37.6016C68.2882 36.8854 67.2676 36.7449 66.5514 37.2877C65.8353 37.8305 65.6948 38.8511 66.2376 39.5672C66.7804 40.2833 67.8009 40.4239 68.5171 39.8811Z" fill="#211A67"/>
<path d="M44.8754 29.5403L34.0436 34.1356L31.7107 27.2673C31.5709 26.8668 31.5125 26.4425 31.5389 26.0191C31.6848 23.7332 34.3906 22.165 36.5212 23.6638L44.8754 29.5403Z" fill="#F34B58"/>
<path d="M44.8754 29.5397L34.0436 34.135L31.7107 27.2668C31.5709 26.8663 31.5125 26.4419 31.5389 26.0186C31.5389 26.0186 34.9895 33.5291 44.8754 29.5397Z" fill="#E11226"/>
<path d="M30.6294 60.334C30.6294 60.334 37.6459 60.7716 42.1729 58.3928C44.14 57.7645 42.3494 52.1551 40.3812 52.7834L30.6294 60.334Z" fill="#423D9B"/>
<path d="M41.9294 57.6357C41.3882 57.8075 40.7953 56.9016 40.4659 55.8957C40.127 54.8604 40.0659 53.7216 40.6235 53.5428C41.1694 53.3687 41.7659 54.2898 42.0941 55.304C42.427 56.3334 42.4835 57.4569 41.9294 57.6345V57.6357Z" fill="#211A67"/>
<path d="M22.3294 39.793C28.9612 36.3824 64.2459 18.7389 70.9436 25.8283C72.4177 25.4095 73.8694 25.4012 75.1377 25.9412C77.2836 26.853 78.173 29.5648 76.8283 31.4695C71.9118 38.4224 44.113 49.0107 13.8718 50.2318C13.3078 50.2525 12.7478 50.13 12.244 49.8757C11.7402 49.6214 11.309 49.2437 10.9906 48.7777L2.73179 36.7683C2.63083 36.6214 2.56564 36.4529 2.54145 36.2763C2.51726 36.0997 2.53473 35.9199 2.59247 35.7513C2.65021 35.5826 2.74661 35.4298 2.87397 35.3051C3.00132 35.1804 3.15609 35.0872 3.3259 35.033L7.1659 33.806C7.61003 33.664 8.07844 33.6142 8.54248 33.6595C9.00652 33.7048 9.45644 33.8443 9.86473 34.0695L20.1824 39.7612C20.51 39.9421 20.8771 40.0395 21.2514 40.0451C21.6256 40.0506 21.9966 39.9641 22.3294 39.793Z" fill="#E9E7FC"/>
<path d="M76.8247 31.4709C71.9071 38.4226 44.1071 49.0109 13.8718 50.2356C12.7306 50.2826 11.6365 49.7297 10.9894 48.7767L9.94238 47.2461C65.26 45.0814 76.0247 26.4814 76.0247 26.4814C77.5071 27.6579 77.9777 29.8591 76.8247 31.4709Z" fill="#CCCFF2"/>
<path d="M39.3094 52.0187C39.3094 52.0187 46.3271 52.4563 50.853 50.0775C52.8212 49.4493 51.0295 43.8387 49.0612 44.4681L39.3094 52.0187Z" fill="#423D9B"/>
<path d="M50.6013 49.3374C51.0568 49.192 51.1339 48.1583 50.7734 47.0287C50.4129 45.899 49.7513 45.1011 49.2957 45.2465C48.8401 45.3919 48.7631 46.4255 49.1236 47.5552C49.4841 48.6848 50.1457 49.4827 50.6013 49.3374Z" fill="#211A67"/>
<path d="M8.11773 53.376C7.98001 53.4211 7.84114 53.4627 7.70126 53.5007C6.29185 53.9195 4.60714 54.2254 3.97185 53.7407C2.65773 52.7324 8.22479 48.203 10.6189 46.6948C12.4036 45.5736 18.9624 43.3501 20.1295 45.0242C21.1471 46.4866 11.3942 52.3301 8.11773 53.376Z" fill="#F34B58"/>
<path d="M33.2824 39.8412C33.433 40.2796 33.4034 40.7599 33.2 41.1764C32.9965 41.5929 32.636 41.9116 32.1977 42.0624C31.759 42.2121 31.2788 42.1814 30.8627 41.9771C30.4467 41.7728 30.1287 41.4116 29.9789 40.973C29.6671 40.0636 30.153 39.0718 31.0659 38.7589C31.9789 38.4459 32.9707 38.9318 33.2824 39.8412ZM39.4448 37.4589C39.595 37.8971 39.5652 38.3771 39.3618 38.7933C39.1584 39.2096 38.7981 39.5281 38.3601 39.6789C37.9214 39.8286 37.4412 39.7979 37.0251 39.5936C36.609 39.3893 36.2911 39.0281 36.1412 38.5895C35.992 38.1519 36.0226 37.6729 36.2265 37.2579C36.4304 36.8429 36.7907 36.5259 37.2283 36.3765C37.4449 36.302 37.6741 36.2708 37.9027 36.2849C38.1313 36.2989 38.355 36.3579 38.5608 36.4584C38.7667 36.5589 38.9507 36.699 39.1023 36.8707C39.254 37.0424 39.3704 37.2422 39.4448 37.4589ZM45.6071 35.0742C45.9189 35.9883 45.4354 36.9836 44.5224 37.2954C43.6095 37.6071 42.6165 37.1189 42.3036 36.2059C41.9918 35.2965 42.4777 34.3059 43.3906 33.993C44.3036 33.6801 45.2954 34.1648 45.6071 35.0742ZM51.7695 32.6918C51.9201 33.1302 51.8904 33.6105 51.687 34.027C51.4836 34.4435 51.1231 34.7622 50.6848 34.913C50.2461 35.0627 49.7659 35.032 49.3498 34.8277C48.9337 34.6234 48.6158 34.2622 48.4659 33.8236C48.1542 32.9142 48.6401 31.9224 49.553 31.6095C50.4659 31.2965 51.4577 31.7824 51.7695 32.6918ZM57.9318 30.3083C58.0824 30.7467 58.0528 31.2269 57.8494 31.6435C57.646 32.06 57.2854 32.3787 56.8471 32.5295C56.4084 32.6791 55.9282 32.6485 55.5122 32.4442C55.0961 32.2399 54.7781 31.8787 54.6283 31.4401C54.5542 31.2233 54.5236 30.9941 54.5381 30.7655C54.5526 30.5369 54.6121 30.3134 54.713 30.1078C54.814 29.9021 54.9545 29.7184 55.1265 29.5671C55.2984 29.4158 55.4986 29.2999 55.7154 29.2259C55.932 29.1514 56.1611 29.1203 56.3898 29.1343C56.6184 29.1484 56.842 29.2073 57.0479 29.3078C57.2537 29.4084 57.4377 29.5484 57.5894 29.7201C57.7411 29.8918 57.8574 30.0916 57.9318 30.3083ZM70.9436 25.8271C70.5412 26.1436 70.1507 26.4365 69.7765 26.7036L69.773 26.7048C64.0859 30.7483 61.2989 29.4836 61.5095 27.9765C61.5777 27.4636 62.1012 26.8883 62.7801 26.3471C64.2201 25.1954 66.3565 24.1859 66.3565 24.1859L66.3636 24.1836C68.3801 24.2871 69.9648 24.7918 70.9436 25.8271Z" fill="#57B3FE"/>
<path d="M51.9 40.539C53.1671 43.8566 31.8565 60.6601 24.9471 63.5307C24.7296 63.6227 24.5082 63.7051 24.2836 63.7778C21.5412 64.6554 18.2871 64.9707 16.56 63.619C14.6294 62.1084 28.2377 49.4201 32.4765 46.0154C35.6765 43.4319 50.2765 36.2778 51.9 40.539Z" fill="#F34B58"/>
<path d="M24.9483 63.5296C24.7305 63.6224 24.5087 63.7056 24.2836 63.779C21.5413 64.6555 18.2871 64.9707 16.5601 63.619C14.6295 62.1084 28.2377 49.4202 32.4766 46.0155C32.846 45.7178 33.3742 45.3566 34.0177 44.959C34.0177 44.959 18.9989 61.1649 24.9471 63.5307L24.9483 63.5296ZM7.70126 53.5013C6.29185 53.9202 4.60714 54.226 3.97185 53.7413C2.65773 52.7331 8.22479 48.2037 10.6189 46.6955C10.6189 46.6955 3.94361 52.139 7.70126 53.5013Z" fill="#E11226"/>
<path d="M47.9389 42.374C47.6389 43.2764 47.2036 44.1187 46.7153 44.9246C45.2965 47.2505 43.1165 49.5987 40.6248 50.7034C42.7695 48.3987 41.2295 50.2658 46.1365 44.5128C46.7236 43.7999 47.313 43.0858 47.9389 42.374Z" fill="white"/>
<path d="M69.7729 26.7055C64.0859 30.7479 61.2988 29.482 61.5094 27.9761C61.5776 27.4632 62.1012 26.8879 62.78 26.3467L69.7729 26.7055Z" fill="#5094FF"/>
<path d="M10.0883 36.1206C12.5083 36.8454 16.2588 38.9524 18.133 40.6489C16.1965 40.0712 13.6212 38.6842 11.94 37.5359C11.29 37.1087 10.6711 36.6358 10.0883 36.1206ZM36.0871 25.2842C37.0459 25.6195 38.0259 26.2324 38.84 26.7924C39.5906 27.3218 40.5741 28.1395 41.1718 28.8912C40.2671 28.5771 39.1718 27.9195 38.42 27.383C37.6224 26.7995 36.7224 26.0807 36.0871 25.2842Z" fill="white"/>
<path d="M3.21179 19.6776C10.5012 22.9541 26.3047 21.907 28.2236 19.4493C28.2236 19.4493 29.1706 18.3964 27.8483 17.7599C27.8483 17.7599 30.3212 15.8011 28.2247 13.5329C26.38 11.5246 24.7894 12.9364 24.7894 12.9364C24.7894 12.9364 25.2047 10.1705 22.813 9.88464C19.8836 9.54229 16.8071 12.4305 16.8071 12.4305C16.8071 12.4305 13.7953 10.2682 10.5718 14.4141C10.5718 14.4141 7.43061 13.867 6.82709 17.2211C5.35767 17.2623 4.06826 17.5799 2.94238 18.1846C2.24826 18.5517 2.49297 19.3541 3.21179 19.6776ZM44.8 67.9764C52.4589 71.4188 69.0659 70.3188 71.0824 67.7364C71.0824 67.7364 72.0777 66.6305 70.6883 65.9599C70.6883 65.9599 73.2871 63.9023 71.0836 61.5188C69.1447 59.4094 67.4718 60.8929 67.4718 60.8929C67.4718 60.8929 67.9106 57.9858 65.3977 57.6846C62.3189 57.3246 59.0859 60.3611 59.0859 60.3611C59.0859 60.3611 55.9212 58.0882 52.533 62.4446C52.533 62.4446 49.233 61.8705 48.5977 65.3952C47.0541 65.4376 45.6989 65.7717 44.5153 66.407C43.7871 66.7929 44.0447 67.6364 44.7989 67.9764H44.8Z" fill="#E9E7FC"/>
</svg>
