<svg width="80" height="80" viewBox="0 0 80 80" fill="none" xmlns="http://www.w3.org/2000/svg">
<g clip-path="url(#clip0_84_2657)">
<path d="M80 40C80 39.5141 79.9912 39.03 79.9742 38.5483C79.21 17.1294 61.6055 0 40 0C18.3945 0 0.79 17.1294 0.0259375 38.5483C0.00875 39.03 0 39.5141 0 40C0 62.0914 20.5472 78.5484 40 78.5484C59.8053 78.5484 80 62.0914 80 40Z" fill="#FF5876"/>
<path d="M40 77.0963C18.3948 77.0963 0.793438 59.9664 0.0290625 38.5479C0.0106667 39.0315 0.000977619 39.5155 0 39.9996C0 62.091 17.9086 79.9996 40 79.9996C62.0914 79.9996 80 62.091 80 39.9996C80 39.5133 79.9883 39.03 79.9711 38.548C79.2066 59.9666 61.6052 77.0963 40 77.0963Z" fill="#E6485D"/>
<path d="M73.3467 38.5482C72.5867 20.7877 57.9477 6.62207 40 6.62207C22.0524 6.62207 7.4133 20.7877 6.6533 38.5482C6.63267 39.0296 6.65314 71.2546 40 71.2546C73.3469 71.2546 73.3674 39.0296 73.3467 38.5482Z" fill="#E4EEF9"/>
<path d="M40 70.4741C22.0525 70.4741 7.41579 56.3082 6.65547 38.5479C6.63402 39.0314 6.62292 39.5154 6.62219 39.9994C6.62219 58.4335 21.5659 73.3772 40 73.3772C58.4341 73.3772 73.3778 58.4336 73.3778 39.9996C73.3778 39.513 73.365 39.0294 73.3445 38.548C72.5842 56.3083 57.9475 70.4741 40 70.4741Z" fill="#D5E0F2"/>
<path d="M52.1242 28.2886C51.1728 27.3503 49.6409 27.3608 48.7028 28.312L43.0256 34.0678L43.5961 36.808L46.248 37.6914L52.1478 31.71C53.0859 30.7587 53.0755 29.2269 52.1242 28.2886ZM36.5753 34.2881L23.7 22.8144C22.7023 21.9253 21.1731 22.0134 20.2842 23.0111C19.3953 24.0086 19.4833 25.538 20.4809 26.4269L33.6098 38.1265L36.3456 37.214L36.5753 34.2881Z" fill="#405B6C"/>
<path d="M57.1306 55.6C56.8461 55.6002 56.5707 55.4998 56.3531 55.3165L41.0292 42.445C40.7856 42.238 40.6339 41.943 40.6071 41.6245C40.5803 41.306 40.6807 40.9899 40.8863 40.7451C41.0919 40.5004 41.3859 40.3469 41.7043 40.3183C42.0226 40.2897 42.3394 40.3883 42.5853 40.5925L57.9092 53.4642C58.0992 53.6239 58.2355 53.8381 58.2996 54.0779C58.3637 54.3177 58.3525 54.5714 58.2675 54.8046C58.1824 55.0378 58.0278 55.2392 57.8244 55.3815C57.621 55.5238 57.3788 55.6 57.1306 55.6Z" fill="#86DCFF"/>
<path d="M33.6099 38.127L35.8692 40.1404L38.7708 39.1545L38.6135 36.1046L36.5755 34.2885C35.1575 35.1405 34.0842 36.5057 33.6099 38.127ZM43.0255 34.0684L41.1046 36.0159V39.8387H44.1305L46.248 37.692C45.6661 36.1176 44.5056 34.8249 43.0255 34.0684Z" fill="#2D4456"/>
<path d="M43.8723 38.5479C43.2845 36.9807 41.7725 35.8652 40 35.8652C38.2275 35.8652 36.7154 36.9807 36.1276 38.5479C35.9583 38.9996 36.1164 42.6826 40 42.6826C43.8836 42.6826 44.0417 38.9996 43.8723 38.5479Z" fill="#FF5876"/>
<path d="M40 41.2316C38.2275 41.2316 36.7161 40.116 36.1283 38.5488C35.9541 39.0129 35.8651 39.5047 35.8655 40.0004C35.8655 42.2838 37.7166 44.1348 39.9999 44.1348C42.2833 44.1348 44.1342 42.2837 44.1342 40.0004C44.1342 39.4895 44.041 39.0005 43.8716 38.5488C43.2839 40.1159 41.7725 41.2316 40 41.2316Z" fill="#E6485D"/>
<path d="M41.212 14.6205V10.8663C41.212 10.5449 41.0843 10.2366 40.857 10.0093C40.6297 9.78199 40.3215 9.6543 40 9.6543C39.6786 9.6543 39.3703 9.78199 39.143 10.0093C38.9157 10.2366 38.788 10.5449 38.788 10.8663V14.6205C38.788 15.2899 39.3305 15.8326 40 15.8326C40.6695 15.8326 41.212 15.2899 41.212 14.6205ZM38.788 65.379V69.1332C38.788 69.8026 39.3305 70.3452 40 70.3452C40.6695 70.3452 41.212 69.8026 41.212 69.1332V65.379C41.212 65.0575 41.0843 64.7493 40.857 64.5219C40.6297 64.2947 40.3215 64.167 40 64.167C39.6786 64.167 39.3703 64.2947 39.143 64.5219C38.9157 64.7493 38.788 65.0575 38.788 65.379ZM69.1334 41.2118C69.4549 41.2118 69.7632 41.0841 69.9905 40.8568C70.2178 40.6295 70.3455 40.3212 70.3455 39.9998C70.3455 39.6783 70.2178 39.37 69.9905 39.1427C69.7632 38.9154 69.4549 38.7877 69.1334 38.7877H65.3792C65.0578 38.7877 64.7495 38.9154 64.5222 39.1427C64.2949 39.37 64.1672 39.6783 64.1672 39.9998C64.1672 40.3212 64.2949 40.6295 64.5222 40.8568C64.7495 41.0841 65.0578 41.2118 65.3792 41.2118H69.1334ZM10.8666 38.7877C10.197 38.7877 9.65454 39.3304 9.65454 39.9998C9.65454 40.6691 10.197 41.2118 10.8666 41.2118H14.6208C14.9422 41.2118 15.2505 41.0841 15.4778 40.8568C15.7051 40.6295 15.8328 40.3212 15.8328 39.9998C15.8328 39.6783 15.7051 39.37 15.4778 39.1427C15.2505 38.9154 14.9422 38.7877 14.6208 38.7877H10.8666Z" fill="#405B6C"/>
</g>
<defs>
<clipPath id="clip0_84_2657">
<rect width="80" height="80" fill="white"/>
</clipPath>
</defs>
</svg>
