<svg width="80" height="80" viewBox="0 0 80 80" fill="none" xmlns="http://www.w3.org/2000/svg">
<g clip-path="url(#clip0_84_2647)">
<path d="M63.4281 11.0547H43.1136C42.0269 11.0547 40.9507 11.2687 39.9466 11.6846C38.9426 12.1005 38.0303 12.7101 37.2618 13.4786L1.21201 49.5284C-0.404084 51.1445 -0.404084 53.7644 1.21201 55.3802L24.6198 78.7878C26.2359 80.4039 28.8557 80.4039 30.4716 78.7878L66.5212 42.7382C67.2897 41.9697 67.8993 41.0574 68.3152 40.0534C68.7311 39.0493 68.9452 37.9731 68.9452 36.8864V16.572C68.9453 13.5247 66.475 11.0547 63.4281 11.0547ZM57.931 26.2068C55.6456 26.2068 53.793 24.3542 53.793 22.0689C53.793 19.7836 55.6456 17.9309 57.931 17.9309C60.2163 17.9309 62.0689 19.7836 62.0689 22.0689C62.0689 24.3542 60.2164 26.2068 57.931 26.2068Z" fill="#FF507D"/>
<path d="M77.1714 2.82859C75.3491 1.00484 72.9244 0 70.3449 0C67.7654 0 65.341 1.00484 63.5183 2.82859C61.5722 4.77468 59.4049 7.83561 57.8152 11.0547H60.9086C62.1427 8.77623 63.7202 6.52733 65.4686 4.7789C66.7714 3.47656 68.5036 2.75859 70.3449 2.75859C72.1861 2.75859 73.9185 3.47656 75.221 4.77905C76.5233 6.08171 77.2414 7.81374 77.2414 9.65514C77.2414 11.4965 76.5235 13.2287 75.2208 14.5311C70.1964 19.5554 61.0505 23.2365 58.9062 21.0937C58.3199 20.5075 58.1826 19.3853 58.3768 17.9772C58.2283 17.9607 58.0838 17.9309 57.9308 17.9309C57.0324 17.9309 56.2093 18.2248 55.5352 18.7132C55.4782 20.4584 55.8873 21.9754 56.9557 23.0442C57.9605 24.049 59.3588 24.4732 60.9738 24.4732C66.1638 24.4732 73.5708 20.082 77.1711 16.4815C78.9949 14.6592 79.9997 12.2345 79.9997 9.65498C79.9997 7.07546 78.9952 4.65108 77.1714 2.82859Z" fill="#E4EAF8"/>
<path d="M57.8152 11.0543H60.9086C61.4208 10.1088 62.0038 9.17711 62.6219 8.27539H59.3565C58.8072 9.1732 58.2843 10.1043 57.8152 11.0543ZM58.5296 24.0391C59.3783 23.781 60.0001 23.0015 60.0001 22.0685C60.0001 21.909 59.9757 21.7565 59.9405 21.6079C59.5136 21.5096 59.1582 21.3449 58.9062 21.0933C58.3199 20.5071 58.1826 19.3849 58.3768 17.9768C58.2283 17.9604 58.0838 17.9305 57.9308 17.9305C57.0324 17.9305 56.2093 18.2244 55.5352 18.7129C55.4782 20.458 55.8873 21.975 56.9557 23.0438C57.404 23.4918 57.9407 23.808 58.5296 24.0391Z" fill="#C7CFE2"/>
<path d="M63.4405 13.4241C63.4358 12.1142 62.3727 11.0547 61.0628 11.0547H43.1135C42.0267 11.0547 40.9506 11.2687 39.9465 11.6846C38.9425 12.1005 38.0302 12.7101 37.2618 13.4786L1.21201 49.5285C-0.404084 51.1446 -0.404084 53.7646 1.21201 55.3804L21.1081 75.2764C21.916 76.0844 23.226 76.0844 24.0341 75.2764C24.8421 74.4685 24.8421 73.1585 24.0341 72.3503L19.6942 68.0104C12.1529 60.4691 12.1529 48.2426 19.6942 40.7015L42.0891 18.3062C42.8576 17.5378 43.7699 16.9282 44.7739 16.5123C45.7779 16.0964 46.8541 15.8823 47.9408 15.8823H61.0628C62.3792 15.8823 63.445 14.8128 63.4405 13.4964V13.4241Z" fill="#D23C69"/>
</g>
<defs>
<clipPath id="clip0_84_2647">
<rect width="80" height="80" fill="white"/>
</clipPath>
</defs>
</svg>
