<svg width="76" height="80" viewBox="0 0 76 80" fill="none" xmlns="http://www.w3.org/2000/svg">
<g clip-path="url(#clip0_84_2698)">
<path d="M45.0496 62.824V47.3682H38.08V52.2211H22.4383C20.765 52.2358 19.4119 53.6035 19.4119 55.2946V62.8387C19.4119 66.9417 22.7002 70.2652 26.7598 70.2652H37.7162C41.7758 70.2505 45.0642 66.927 45.0496 62.824Z" fill="#1F315F"/>
<path d="M38.0946 70.7354C37.9782 67.9266 35.7084 65.7207 32.9292 65.7207H31.5469C28.7678 65.7207 26.498 67.9413 26.3961 70.7501L38.0946 70.7354Z" fill="#EFCDB1"/>
<path d="M32.2308 65.6469C31.7506 65.6322 31.3723 65.2499 31.3578 64.7646V58.6616C31.3578 58.1764 31.7506 57.7793 32.2308 57.7793C32.711 57.7793 33.1038 58.1764 33.1038 58.6616V64.7646C33.1184 65.2499 32.7401 65.6322 32.2599 65.6469H32.2454H32.2308Z" fill="#414042"/>
<path d="M38.1091 74.7648V70.7354H26.3961V74.7648C26.3815 77.6471 28.695 79.9854 31.5469 80.0001H32.9437C35.7956 79.9854 38.1091 77.6471 38.1091 74.7648Z" fill="#8A5D3B"/>
<path d="M38.0946 60.3379C37.6144 60.3379 37.2216 59.9408 37.2216 59.4555V52.9702C37.2216 52.4849 37.6144 52.0879 38.0946 52.0879C38.5747 52.0879 38.9676 52.4849 38.9676 52.9702V59.4555C38.9676 59.9408 38.5747 60.3379 38.0946 60.3379Z" fill="#192A4F"/>
<path d="M45.0352 47.3675V43.5145C45.0352 42.5586 44.2785 41.7939 43.3328 41.7939H39.7825C38.8367 41.7939 38.0801 42.5586 38.0801 43.5145V47.3675H45.0352Z" fill="#EFCDB1"/>
<path d="M63.8197 42.368L49.4148 37.1475L47.0576 43.7798L51.5828 45.4122L46.301 60.3092C45.7336 61.8975 46.5484 63.6475 48.1198 64.221L55.1477 66.7651C58.9744 68.1475 63.1795 66.1475 64.5472 62.2798L68.243 51.868C69.6107 48.0151 67.6319 43.7651 63.8197 42.368Z" fill="#89C45E"/>
<path d="M68.8105 51.677C66.1623 50.8241 63.325 52.2358 62.3938 54.8829L61.9281 56.1917C60.9969 58.8388 62.2919 61.7505 64.8673 62.8094L68.8105 51.677Z" fill="#EFCDB1"/>
<path d="M61.2734 56.1029C61.1715 56.1029 61.0697 56.0882 60.9824 56.0441L55.2932 53.9853C54.8421 53.8235 54.6093 53.3088 54.7694 52.8529C54.9294 52.397 55.4096 52.1617 55.8606 52.3235H55.8752L61.5644 54.3823C62.0154 54.5294 62.2774 55.0294 62.1173 55.5C62.0009 55.8676 61.6517 56.1176 61.2734 56.1029Z" fill="#414042"/>
<path d="M72.579 53.0297L69.0142 51.7356L68.8105 51.6768L64.8673 62.8091L65.0565 62.8826L68.6213 64.1768C71.3131 65.1473 74.2668 63.7356 75.2272 61.015L75.6928 59.7062C76.6531 57.0003 75.2563 54.015 72.579 53.0297Z" fill="#8A5D3B"/>
<path d="M58.3051 48.7352L58.0141 48.6911L51.9757 46.4999C51.5246 46.3381 51.2918 45.8234 51.4519 45.3676C51.6119 44.9117 52.1212 44.6764 52.5722 44.8381L58.6106 47.0293C59.0617 47.1911 59.2945 47.6764 59.1345 48.1323V48.147C59.0035 48.4999 58.6834 48.7352 58.3051 48.7352Z" fill="#75AA4D"/>
<path d="M49.4148 37.1474L45.8208 35.8533C44.9333 35.5298 43.9584 36.0004 43.6383 36.8827V36.8974L42.4451 40.2651C42.125 41.1621 42.5906 42.1474 43.4637 42.471H43.4782L47.0576 43.7798L49.4148 37.1474Z" fill="#EFCDB1"/>
<path d="M51.1753 18.7207L42.125 31.1913L47.7414 35.3531L50.5788 31.4413L63.1939 40.7942C64.5471 41.7942 66.4387 41.5001 67.4281 40.1325L71.8514 34.0442C74.2522 30.7354 73.5392 26.0884 70.2654 23.6619L61.4333 17.1178C58.1595 14.706 53.5761 15.4266 51.1753 18.7207Z" fill="#FDC00F"/>
<path d="M61.4188 16.5146C59.8619 18.8382 60.4003 21.9852 62.6411 23.647L63.7469 24.4705C65.9876 26.1176 69.116 25.7058 70.8475 23.5146L61.4188 16.5146Z" fill="#EFCDB1"/>
<path d="M59.0617 30.6322C58.8726 30.6322 58.698 30.5734 58.5525 30.4704C58.1596 30.1763 58.0723 29.6322 58.3633 29.2351L61.9282 24.3087C62.2192 23.9116 62.7575 23.8234 63.1504 24.1175C63.5432 24.4116 63.6305 24.9557 63.3395 25.3528L59.7602 30.2792C59.6001 30.4998 59.3382 30.6322 59.0617 30.6322Z" fill="#414042"/>
<path d="M63.7614 13.2652L61.5207 16.3534L61.4188 16.5152L70.8475 23.5152L70.9784 23.3534L73.2192 20.2505C74.907 17.9269 74.3977 14.6622 72.0988 12.9564L70.993 12.1328C68.694 10.4269 65.4638 10.9269 63.776 13.2505C63.7614 13.2505 63.7614 13.2652 63.7614 13.2652Z" fill="#8A5D3B"/>
<path d="M51.0153 31.7203C50.8262 31.7203 50.6516 31.6615 50.4915 31.5585C50.0987 31.2644 50.0259 30.7203 50.3169 30.3232L54.1 25.088C54.391 24.6909 54.9294 24.6027 55.3222 24.8968C55.7151 25.1909 55.8024 25.735 55.5114 26.1321L51.7137 31.3674C51.5537 31.588 51.2918 31.7203 51.0153 31.7203Z" fill="#E5A60A"/>
<path d="M42.125 31.1914L39.8697 34.2943C39.3168 35.0591 39.4769 36.1326 40.2335 36.7061L43.0999 38.8238C43.8565 39.3826 44.9187 39.2208 45.4862 38.4561L47.7415 35.3532L42.125 31.1914Z" fill="#EFCDB1"/>
<path d="M21.1579 50.4264L35.3591 44.6617L32.7691 38.1323L28.3021 39.9411L22.4674 25.2646C21.8563 23.7058 20.1103 22.9264 18.5534 23.544C18.5534 23.544 18.5388 23.544 18.5388 23.5587L11.5983 26.3823C7.84433 27.9117 6.02553 32.2352 7.52422 36.0293L11.6129 46.294C13.1116 50.1029 17.3748 51.9558 21.1434 50.4264H21.1579Z" fill="#02648E"/>
<path d="M11.3073 46.8388C13.8391 45.6917 15.0322 42.7211 13.9992 40.1182L13.4754 38.8241C12.4423 36.2211 9.5613 34.9123 6.95679 35.8535L11.3073 46.8388Z" fill="#EFCDB1"/>
<path d="M14.6103 40.0001C14.2611 40.0001 13.941 39.7795 13.8101 39.4413C13.6355 38.9854 13.8392 38.4707 14.2902 38.2942L19.8921 36.0148C20.3432 35.8384 20.8525 36.059 21.0416 36.5148C21.2162 36.9707 20.998 37.4854 20.5469 37.6619L14.945 39.9413C14.8432 39.9854 14.7268 40.0001 14.6103 40.0001Z" fill="#414042"/>
<path d="M7.61158 48.3388L11.1328 46.9123L11.3074 46.8388L6.95681 35.8535L6.75311 35.927L3.24647 37.3535C0.598302 38.427 -0.682131 41.4712 0.380046 44.1476L0.889309 45.4417C1.95149 48.1182 4.96341 49.4123 7.61158 48.3388Z" fill="#8A5D3B"/>
<path d="M21.6818 43.5144C21.2016 43.5292 20.7942 43.1468 20.7942 42.6615C20.7797 42.2939 21.0125 41.9556 21.3471 41.8086L27.2982 39.3968C27.7493 39.2203 28.2586 39.4262 28.4332 39.8821C28.6223 40.3233 28.4186 40.838 27.9821 41.0144C27.9676 41.0144 27.9676 41.0145 27.953 41.0292L22.0019 43.4556C21.9001 43.4997 21.7982 43.5144 21.6818 43.5144Z" fill="#345493"/>
<path d="M35.3591 44.6619L38.8949 43.2207C39.7679 42.8678 40.1899 41.8678 39.8406 40.9854L38.5166 37.6472C38.1674 36.7648 37.1779 36.3384 36.3049 36.6913L32.7692 38.1325L35.3591 44.6619Z" fill="#EFCDB1"/>
<path d="M23.6752 22.7211L32.1581 35.5887L37.9491 31.6917L35.2864 27.6623L48.3235 18.8976C49.7058 17.9564 50.0841 16.0593 49.1529 14.6476L45.0206 8.36816C42.7653 4.95639 38.211 4.02992 34.8353 6.29463L25.7268 12.427C22.3511 14.6917 21.4344 19.3093 23.6752 22.7211Z" fill="#BE1E2D"/>
<path d="M25.1448 12.2502C26.7744 14.5149 29.8736 15.0885 32.1872 13.5296L33.3366 12.7649C35.6501 11.2208 36.3486 8.08846 34.8935 5.69141L25.1448 12.2502Z" fill="#EFCDB1"/>
<path d="M36.6395 19.9123C36.3485 19.9123 36.0721 19.7652 35.912 19.5152L32.5654 14.427C32.2744 14.0299 32.3617 13.4858 32.74 13.1917C33.1329 12.8976 33.6713 12.9858 33.9623 13.3681C33.9768 13.3976 34.0059 13.427 34.0205 13.4564L37.3671 18.5299C37.629 18.9417 37.5271 19.4858 37.1197 19.7652C36.9742 19.8534 36.8141 19.9123 36.6395 19.9123Z" fill="#414042"/>
<path d="M22.9331 8.88248L25.0284 12.0737L25.1448 12.2501L34.8935 5.69131L34.7771 5.51484L32.6818 2.32366C31.0959 -0.0733981 27.8802 -0.720457 25.5085 0.882484L24.3736 1.64719C22.0019 3.23542 21.3471 6.45601 22.9185 8.86778L22.9331 8.88248Z" fill="#8A5D3B"/>
<path d="M34.8789 27.9265C34.5879 27.9265 34.3115 27.7795 34.1514 27.5295L30.6011 22.1324C30.3247 21.7207 30.4411 21.1765 30.8485 20.9118C31.2559 20.6324 31.7942 20.7501 32.0562 21.1471L35.6064 26.5442C35.8684 26.9412 35.7665 27.4854 35.3882 27.7501C35.3736 27.7501 35.3736 27.7648 35.3591 27.7648C35.2136 27.8677 35.0535 27.9265 34.8789 27.9265Z" fill="#AA1729"/>
<path d="M32.1581 35.5885L34.2679 38.7943C34.7771 39.5885 35.8248 39.8091 36.5959 39.2943C36.6105 39.2943 36.6105 39.2796 36.625 39.2796L39.5933 37.2943C40.379 36.7649 40.5827 35.6914 40.0589 34.8973L37.9491 31.6914L32.1581 35.5885Z" fill="#EFCDB1"/>
</g>
<defs>
<clipPath id="clip0_84_2698">
<rect width="76" height="80" fill="white"/>
</clipPath>
</defs>
</svg>
